<mxfile host="app.diagrams.net" modified="2023-09-20T19:38:41.341Z" agent="Mozilla/5.0 (Windows NT 10.0; Win64; x64) AppleWebKit/537.36 (KHTML, like Gecko) Chrome/116.0.0.0 Safari/537.36" etag="zMYmeqUGAbtFU2pUEYGe" version="21.7.5" type="device">
  <diagram name="Page-1" id="yjjN8zbC1VRi_KGL64Z1">
    <mxGraphModel dx="1596" dy="771" grid="1" gridSize="10" guides="1" tooltips="1" connect="1" arrows="1" fold="1" page="1" pageScale="1" pageWidth="827" pageHeight="1169" math="0" shadow="0">
      <root>
        <mxCell id="0" />
        <mxCell id="1" parent="0" />
        <mxCell id="ee4p5m4NYaFbDFk599MZ-4" value="&#xa;&lt;span style=&quot;color: rgb(0, 0, 0); font-family: Helvetica; font-size: 12px; font-style: normal; font-variant-ligatures: normal; font-variant-caps: normal; font-weight: 400; letter-spacing: normal; orphans: 2; text-align: center; text-indent: 0px; text-transform: none; widows: 2; word-spacing: 0px; -webkit-text-stroke-width: 0px; background-color: rgb(251, 251, 251); text-decoration-thickness: initial; text-decoration-style: initial; text-decoration-color: initial; float: none; display: inline !important;&quot;&gt;return&lt;/span&gt;&#xa;&#xa;" style="edgeStyle=orthogonalEdgeStyle;rounded=0;orthogonalLoop=1;jettySize=auto;html=1;" edge="1" parent="1" source="ee4p5m4NYaFbDFk599MZ-1" target="ee4p5m4NYaFbDFk599MZ-3">
          <mxGeometry x="-0.4545" y="30" relative="1" as="geometry">
            <mxPoint as="offset" />
          </mxGeometry>
        </mxCell>
        <mxCell id="ee4p5m4NYaFbDFk599MZ-8" value="" style="edgeStyle=orthogonalEdgeStyle;rounded=0;orthogonalLoop=1;jettySize=auto;html=1;" edge="1" parent="1" source="ee4p5m4NYaFbDFk599MZ-1" target="ee4p5m4NYaFbDFk599MZ-7">
          <mxGeometry relative="1" as="geometry" />
        </mxCell>
        <mxCell id="ee4p5m4NYaFbDFk599MZ-9" value="call" style="edgeLabel;html=1;align=center;verticalAlign=middle;resizable=0;points=[];" vertex="1" connectable="0" parent="ee4p5m4NYaFbDFk599MZ-8">
          <mxGeometry x="-0.0182" relative="1" as="geometry">
            <mxPoint as="offset" />
          </mxGeometry>
        </mxCell>
        <mxCell id="ee4p5m4NYaFbDFk599MZ-1" value="my_function(input)&amp;nbsp;" style="rounded=0;whiteSpace=wrap;html=1;" vertex="1" parent="1">
          <mxGeometry x="180" y="225" width="180" height="110" as="geometry" />
        </mxCell>
        <mxCell id="ee4p5m4NYaFbDFk599MZ-5" style="edgeStyle=orthogonalEdgeStyle;rounded=0;orthogonalLoop=1;jettySize=auto;html=1;entryX=0.5;entryY=0;entryDx=0;entryDy=0;" edge="1" parent="1" source="ee4p5m4NYaFbDFk599MZ-2" target="ee4p5m4NYaFbDFk599MZ-1">
          <mxGeometry relative="1" as="geometry" />
        </mxCell>
        <mxCell id="ee4p5m4NYaFbDFk599MZ-2" value="input=Norway" style="rounded=0;whiteSpace=wrap;html=1;" vertex="1" parent="1">
          <mxGeometry x="60" y="120" width="120" height="60" as="geometry" />
        </mxCell>
        <mxCell id="ee4p5m4NYaFbDFk599MZ-3" value="output/return" style="whiteSpace=wrap;html=1;rounded=0;" vertex="1" parent="1">
          <mxGeometry x="120" y="400" width="120" height="60" as="geometry" />
        </mxCell>
        <mxCell id="ee4p5m4NYaFbDFk599MZ-6" value="Argument" style="text;html=1;strokeColor=none;fillColor=none;align=center;verticalAlign=middle;whiteSpace=wrap;rounded=0;" vertex="1" parent="1">
          <mxGeometry x="180" y="135" width="60" height="30" as="geometry" />
        </mxCell>
        <mxCell id="ee4p5m4NYaFbDFk599MZ-7" value="my_function(Afghanistan)" style="whiteSpace=wrap;html=1;rounded=0;" vertex="1" parent="1">
          <mxGeometry x="460" y="250" width="170" height="60" as="geometry" />
        </mxCell>
        <mxCell id="ee4p5m4NYaFbDFk599MZ-10" value="&lt;div style=&quot;background-color: rgb(33, 33, 34); font-family: Consolas, &amp;quot;Courier New&amp;quot;, monospace; font-size: 14px; line-height: 19px;&quot;&gt;&lt;font color=&quot;#d4d4d4&quot;&gt;tri_recursion&lt;/font&gt;&lt;span style=&quot;color: rgb(169, 183, 198);&quot;&gt;(&lt;/span&gt;&lt;font color=&quot;#6897bb&quot;&gt;3)&lt;/font&gt;&lt;/div&gt;" style="rounded=0;whiteSpace=wrap;html=1;" vertex="1" parent="1">
          <mxGeometry x="300" y="470" width="150" height="60" as="geometry" />
        </mxCell>
        <mxCell id="ee4p5m4NYaFbDFk599MZ-26" style="edgeStyle=orthogonalEdgeStyle;rounded=0;orthogonalLoop=1;jettySize=auto;html=1;exitX=0;exitY=1;exitDx=0;exitDy=0;entryX=0.5;entryY=1;entryDx=0;entryDy=0;" edge="1" parent="1" source="ee4p5m4NYaFbDFk599MZ-11" target="ee4p5m4NYaFbDFk599MZ-19">
          <mxGeometry relative="1" as="geometry" />
        </mxCell>
        <mxCell id="ee4p5m4NYaFbDFk599MZ-27" value="1" style="edgeLabel;html=1;align=center;verticalAlign=middle;resizable=0;points=[];" vertex="1" connectable="0" parent="ee4p5m4NYaFbDFk599MZ-26">
          <mxGeometry x="0.0028" y="1" relative="1" as="geometry">
            <mxPoint as="offset" />
          </mxGeometry>
        </mxCell>
        <mxCell id="ee4p5m4NYaFbDFk599MZ-11" value="&lt;div style=&quot;background-color: rgb(33, 33, 34); font-family: Consolas, &amp;quot;Courier New&amp;quot;, monospace; font-size: 14px; line-height: 19px;&quot;&gt;&lt;font color=&quot;#d4d4d4&quot;&gt;tri_recursion&lt;/font&gt;&lt;span style=&quot;color: rgb(169, 183, 198);&quot;&gt;(1&lt;/span&gt;&lt;font color=&quot;#6897bb&quot;&gt;)&lt;/font&gt;&lt;/div&gt;" style="rounded=0;whiteSpace=wrap;html=1;" vertex="1" parent="1">
          <mxGeometry x="820" y="545" width="150" height="60" as="geometry" />
        </mxCell>
        <mxCell id="ee4p5m4NYaFbDFk599MZ-28" style="edgeStyle=orthogonalEdgeStyle;rounded=0;orthogonalLoop=1;jettySize=auto;html=1;exitX=0;exitY=0.75;exitDx=0;exitDy=0;entryX=0.413;entryY=0.955;entryDx=0;entryDy=0;entryPerimeter=0;" edge="1" parent="1" source="ee4p5m4NYaFbDFk599MZ-12" target="ee4p5m4NYaFbDFk599MZ-16">
          <mxGeometry relative="1" as="geometry" />
        </mxCell>
        <mxCell id="ee4p5m4NYaFbDFk599MZ-29" value="3" style="edgeLabel;html=1;align=center;verticalAlign=middle;resizable=0;points=[];" vertex="1" connectable="0" parent="ee4p5m4NYaFbDFk599MZ-28">
          <mxGeometry x="-0.2559" relative="1" as="geometry">
            <mxPoint as="offset" />
          </mxGeometry>
        </mxCell>
        <mxCell id="ee4p5m4NYaFbDFk599MZ-12" value="&lt;div style=&quot;background-color: rgb(33, 33, 34); font-family: Consolas, &amp;quot;Courier New&amp;quot;, monospace; font-size: 14px; line-height: 19px;&quot;&gt;&lt;font color=&quot;#d4d4d4&quot;&gt;tri_recursion&lt;/font&gt;&lt;span style=&quot;color: rgb(169, 183, 198);&quot;&gt;(2&lt;/span&gt;&lt;font color=&quot;#6897bb&quot;&gt;)&lt;/font&gt;&lt;/div&gt;" style="rounded=0;whiteSpace=wrap;html=1;" vertex="1" parent="1">
          <mxGeometry x="590" y="515" width="150" height="60" as="geometry" />
        </mxCell>
        <mxCell id="ee4p5m4NYaFbDFk599MZ-23" style="edgeStyle=orthogonalEdgeStyle;rounded=0;orthogonalLoop=1;jettySize=auto;html=1;entryX=0.5;entryY=1;entryDx=0;entryDy=0;" edge="1" parent="1" source="ee4p5m4NYaFbDFk599MZ-13" target="ee4p5m4NYaFbDFk599MZ-21">
          <mxGeometry relative="1" as="geometry" />
        </mxCell>
        <mxCell id="ee4p5m4NYaFbDFk599MZ-24" value="0" style="edgeLabel;html=1;align=center;verticalAlign=middle;resizable=0;points=[];" vertex="1" connectable="0" parent="ee4p5m4NYaFbDFk599MZ-23">
          <mxGeometry x="0.0917" y="-1" relative="1" as="geometry">
            <mxPoint as="offset" />
          </mxGeometry>
        </mxCell>
        <mxCell id="ee4p5m4NYaFbDFk599MZ-13" value="&lt;div style=&quot;background-color: rgb(33, 33, 34); font-family: Consolas, &amp;quot;Courier New&amp;quot;, monospace; font-size: 14px; line-height: 19px;&quot;&gt;&lt;font color=&quot;#d4d4d4&quot;&gt;tri_recursion&lt;/font&gt;&lt;span style=&quot;color: rgb(169, 183, 198);&quot;&gt;(0&lt;/span&gt;&lt;font color=&quot;#6897bb&quot;&gt;)&lt;/font&gt;&lt;/div&gt;" style="rounded=0;whiteSpace=wrap;html=1;" vertex="1" parent="1">
          <mxGeometry x="1100" y="590" width="150" height="60" as="geometry" />
        </mxCell>
        <mxCell id="ee4p5m4NYaFbDFk599MZ-14" value="&lt;div style=&quot;color: rgb(212, 212, 212); background-color: rgb(33, 33, 34); font-family: Consolas, &amp;quot;Courier New&amp;quot;, monospace; font-weight: normal; font-size: 14px; line-height: 19px;&quot;&gt;&lt;div&gt;&lt;span style=&quot;color: #cc7832;font-weight: bold;&quot;&gt;def&lt;/span&gt;&lt;span style=&quot;color: #a9b7c6;&quot;&gt; &lt;/span&gt;&lt;span style=&quot;color: #ffc66d;&quot;&gt;tri_recursion&lt;/span&gt;&lt;span style=&quot;color: #a9b7c6;&quot;&gt;(k):&lt;/span&gt;&lt;/div&gt;&lt;div&gt;&lt;span style=&quot;color: #a9b7c6;&quot;&gt;&amp;nbsp; &lt;/span&gt;&lt;span style=&quot;color: #cc7832;font-weight: bold;&quot;&gt;if&lt;/span&gt;&lt;span style=&quot;color: #a9b7c6;&quot;&gt;(k &lt;/span&gt;&lt;span style=&quot;color: #a9b7c6;font-weight: bold;&quot;&gt;&amp;gt;&lt;/span&gt;&lt;span style=&quot;color: #a9b7c6;&quot;&gt; &lt;/span&gt;&lt;span style=&quot;color: #6897bb;&quot;&gt;0&lt;/span&gt;&lt;span style=&quot;color: #a9b7c6;&quot;&gt;):&lt;/span&gt;&lt;/div&gt;&lt;div&gt;&lt;span style=&quot;color: #a9b7c6;&quot;&gt;&amp;nbsp; &amp;nbsp; result &lt;/span&gt;&lt;span style=&quot;color: #a9b7c6;font-weight: bold;&quot;&gt;=&lt;/span&gt;&lt;span style=&quot;color: #a9b7c6;&quot;&gt; k &lt;/span&gt;&lt;span style=&quot;color: #a9b7c6;font-weight: bold;&quot;&gt;+&lt;/span&gt;&lt;span style=&quot;color: #a9b7c6;&quot;&gt; &lt;/span&gt;&lt;span style=&quot;color: #ffc66d;&quot;&gt;tri_recursion&lt;/span&gt;&lt;span style=&quot;color: #a9b7c6;&quot;&gt;(k &lt;/span&gt;&lt;span style=&quot;color: #a9b7c6;font-weight: bold;&quot;&gt;-&lt;/span&gt;&lt;span style=&quot;color: #a9b7c6;&quot;&gt; &lt;/span&gt;&lt;span style=&quot;color: #6897bb;&quot;&gt;1&lt;/span&gt;&lt;span style=&quot;color: #a9b7c6;&quot;&gt;)&lt;/span&gt;&lt;/div&gt;&lt;div&gt;&lt;span style=&quot;color: #a9b7c6;&quot;&gt;&amp;nbsp; &amp;nbsp; &lt;/span&gt;&lt;span style=&quot;color: #ffc66d;&quot;&gt;print&lt;/span&gt;&lt;span style=&quot;color: #a9b7c6;&quot;&gt;(result)&lt;/span&gt;&lt;/div&gt;&lt;div&gt;&lt;span style=&quot;color: #a9b7c6;&quot;&gt;&amp;nbsp; &lt;/span&gt;&lt;span style=&quot;color: #cc7832;font-weight: bold;&quot;&gt;else&lt;/span&gt;&lt;span style=&quot;color: #a9b7c6;&quot;&gt;:&lt;/span&gt;&lt;/div&gt;&lt;div&gt;&lt;span style=&quot;color: #a9b7c6;&quot;&gt;&amp;nbsp; &amp;nbsp; result &lt;/span&gt;&lt;span style=&quot;color: #a9b7c6;font-weight: bold;&quot;&gt;=&lt;/span&gt;&lt;span style=&quot;color: #a9b7c6;&quot;&gt; &lt;/span&gt;&lt;span style=&quot;color: #6897bb;&quot;&gt;0&lt;/span&gt;&lt;/div&gt;&lt;div&gt;&lt;span style=&quot;color: #a9b7c6;&quot;&gt;&amp;nbsp; &lt;/span&gt;&lt;span style=&quot;color: #cc7832;font-weight: bold;&quot;&gt;return&lt;/span&gt;&lt;span style=&quot;color: #a9b7c6;&quot;&gt; result&lt;/span&gt;&lt;/div&gt;&lt;br&gt;&lt;div&gt;&lt;span style=&quot;color: #ffc66d;&quot;&gt;print&lt;/span&gt;&lt;span style=&quot;color: #a9b7c6;&quot;&gt;(&lt;/span&gt;&lt;span style=&quot;color: #cc7832;font-weight: bold;&quot;&gt;f&lt;/span&gt;&lt;span style=&quot;color: #6a8759;&quot;&gt;&quot;&lt;/span&gt;&lt;span style=&quot;color: #a9b7c6;&quot;&gt;\n\n&lt;/span&gt;&lt;span style=&quot;color: #6a8759;&quot;&gt;Recursion Example Results &lt;/span&gt;&lt;span style=&quot;color: #a9b7c6;&quot;&gt;{&lt;/span&gt;&lt;span style=&quot;color: #ffc66d;&quot;&gt;tri_recursion&lt;/span&gt;&lt;span style=&quot;color: #a9b7c6;&quot;&gt;(&lt;/span&gt;&lt;span style=&quot;color: #6897bb;&quot;&gt;6&lt;/span&gt;&lt;span style=&quot;color: #a9b7c6;&quot;&gt;)}&lt;/span&gt;&lt;span style=&quot;color: #6a8759;&quot;&gt;&quot;&lt;/span&gt;&lt;span style=&quot;color: #a9b7c6;&quot;&gt;)&lt;/span&gt;&lt;/div&gt;&lt;/div&gt;" style="text;whiteSpace=wrap;html=1;" vertex="1" parent="1">
          <mxGeometry x="800" y="200" width="480" height="190" as="geometry" />
        </mxCell>
        <mxCell id="ee4p5m4NYaFbDFk599MZ-15" value="K = 3" style="text;html=1;align=center;verticalAlign=middle;resizable=0;points=[];autosize=1;strokeColor=none;fillColor=none;" vertex="1" parent="1">
          <mxGeometry x="225" y="488" width="50" height="30" as="geometry" />
        </mxCell>
        <mxCell id="ee4p5m4NYaFbDFk599MZ-18" style="edgeStyle=orthogonalEdgeStyle;rounded=0;orthogonalLoop=1;jettySize=auto;html=1;entryX=0;entryY=0.5;entryDx=0;entryDy=0;" edge="1" parent="1" source="ee4p5m4NYaFbDFk599MZ-16" target="ee4p5m4NYaFbDFk599MZ-12">
          <mxGeometry relative="1" as="geometry" />
        </mxCell>
        <mxCell id="ee4p5m4NYaFbDFk599MZ-16" value="&lt;span style=&quot;border-color: var(--border-color); font-family: Consolas, &amp;quot;Courier New&amp;quot;, monospace; font-size: 14px; font-style: normal; font-variant-ligatures: normal; font-variant-caps: normal; font-weight: 400; letter-spacing: normal; orphans: 2; text-align: left; text-indent: 0px; text-transform: none; widows: 2; word-spacing: 0px; -webkit-text-stroke-width: 0px; background-color: rgb(33, 33, 34); text-decoration-thickness: initial; text-decoration-style: initial; text-decoration-color: initial; color: rgb(169, 183, 198);&quot;&gt;&lt;span&gt;3&amp;nbsp;&lt;/span&gt;&lt;/span&gt;&lt;span style=&quot;border-color: var(--border-color); font-family: Consolas, &amp;quot;Courier New&amp;quot;, monospace; font-size: 14px; font-style: normal; font-variant-ligatures: normal; font-variant-caps: normal; letter-spacing: normal; orphans: 2; text-align: left; text-indent: 0px; text-transform: none; widows: 2; word-spacing: 0px; -webkit-text-stroke-width: 0px; background-color: rgb(33, 33, 34); text-decoration-thickness: initial; text-decoration-style: initial; text-decoration-color: initial; color: rgb(169, 183, 198); font-weight: bold;&quot;&gt;+&lt;/span&gt;&lt;span style=&quot;border-color: var(--border-color); font-family: Consolas, &amp;quot;Courier New&amp;quot;, monospace; font-size: 14px; font-style: normal; font-variant-ligatures: normal; font-variant-caps: normal; font-weight: 400; letter-spacing: normal; orphans: 2; text-align: left; text-indent: 0px; text-transform: none; widows: 2; word-spacing: 0px; -webkit-text-stroke-width: 0px; background-color: rgb(33, 33, 34); text-decoration-thickness: initial; text-decoration-style: initial; text-decoration-color: initial; color: rgb(169, 183, 198);&quot;&gt;&lt;span&gt;&amp;nbsp;&lt;/span&gt;&lt;/span&gt;&lt;span style=&quot;border-color: var(--border-color); font-family: Consolas, &amp;quot;Courier New&amp;quot;, monospace; font-size: 14px; font-style: normal; font-variant-ligatures: normal; font-variant-caps: normal; font-weight: 400; letter-spacing: normal; orphans: 2; text-align: left; text-indent: 0px; text-transform: none; widows: 2; word-spacing: 0px; -webkit-text-stroke-width: 0px; background-color: rgb(33, 33, 34); text-decoration-thickness: initial; text-decoration-style: initial; text-decoration-color: initial; color: rgb(255, 198, 109);&quot;&gt;tri_recursion&lt;/span&gt;&lt;span style=&quot;border-color: var(--border-color); font-family: Consolas, &amp;quot;Courier New&amp;quot;, monospace; font-size: 14px; font-style: normal; font-variant-ligatures: normal; font-variant-caps: normal; font-weight: 400; letter-spacing: normal; orphans: 2; text-align: left; text-indent: 0px; text-transform: none; widows: 2; word-spacing: 0px; -webkit-text-stroke-width: 0px; background-color: rgb(33, 33, 34); text-decoration-thickness: initial; text-decoration-style: initial; text-decoration-color: initial; color: rgb(169, 183, 198);&quot;&gt;(3&lt;span&gt;&amp;nbsp;&lt;/span&gt;&lt;/span&gt;&lt;span style=&quot;border-color: var(--border-color); font-family: Consolas, &amp;quot;Courier New&amp;quot;, monospace; font-size: 14px; font-style: normal; font-variant-ligatures: normal; font-variant-caps: normal; letter-spacing: normal; orphans: 2; text-align: left; text-indent: 0px; text-transform: none; widows: 2; word-spacing: 0px; -webkit-text-stroke-width: 0px; background-color: rgb(33, 33, 34); text-decoration-thickness: initial; text-decoration-style: initial; text-decoration-color: initial; color: rgb(169, 183, 198); font-weight: bold;&quot;&gt;-&lt;/span&gt;&lt;span style=&quot;border-color: var(--border-color); font-family: Consolas, &amp;quot;Courier New&amp;quot;, monospace; font-size: 14px; font-style: normal; font-variant-ligatures: normal; font-variant-caps: normal; font-weight: 400; letter-spacing: normal; orphans: 2; text-align: left; text-indent: 0px; text-transform: none; widows: 2; word-spacing: 0px; -webkit-text-stroke-width: 0px; background-color: rgb(33, 33, 34); text-decoration-thickness: initial; text-decoration-style: initial; text-decoration-color: initial; color: rgb(169, 183, 198);&quot;&gt;&lt;span&gt;&amp;nbsp;&lt;/span&gt;&lt;/span&gt;&lt;span style=&quot;border-color: var(--border-color); font-family: Consolas, &amp;quot;Courier New&amp;quot;, monospace; font-size: 14px; font-style: normal; font-variant-ligatures: normal; font-variant-caps: normal; font-weight: 400; letter-spacing: normal; orphans: 2; text-align: left; text-indent: 0px; text-transform: none; widows: 2; word-spacing: 0px; -webkit-text-stroke-width: 0px; background-color: rgb(33, 33, 34); text-decoration-thickness: initial; text-decoration-style: initial; text-decoration-color: initial; color: rgb(104, 151, 187);&quot;&gt;1&lt;/span&gt;&lt;span style=&quot;border-color: var(--border-color); font-family: Consolas, &amp;quot;Courier New&amp;quot;, monospace; font-size: 14px; font-style: normal; font-variant-ligatures: normal; font-variant-caps: normal; font-weight: 400; letter-spacing: normal; orphans: 2; text-align: left; text-indent: 0px; text-transform: none; widows: 2; word-spacing: 0px; -webkit-text-stroke-width: 0px; background-color: rgb(33, 33, 34); text-decoration-thickness: initial; text-decoration-style: initial; text-decoration-color: initial; color: rgb(169, 183, 198);&quot;&gt;)&lt;/span&gt;" style="text;whiteSpace=wrap;html=1;" vertex="1" parent="1">
          <mxGeometry x="300" y="530" width="200" height="30" as="geometry" />
        </mxCell>
        <mxCell id="ee4p5m4NYaFbDFk599MZ-20" style="edgeStyle=orthogonalEdgeStyle;rounded=0;orthogonalLoop=1;jettySize=auto;html=1;entryX=0;entryY=0.75;entryDx=0;entryDy=0;" edge="1" parent="1" source="ee4p5m4NYaFbDFk599MZ-19" target="ee4p5m4NYaFbDFk599MZ-11">
          <mxGeometry relative="1" as="geometry" />
        </mxCell>
        <mxCell id="ee4p5m4NYaFbDFk599MZ-19" value="&lt;span style=&quot;border-color: var(--border-color); font-family: Consolas, &amp;quot;Courier New&amp;quot;, monospace; font-size: 14px; font-style: normal; font-variant-ligatures: normal; font-variant-caps: normal; font-weight: 400; letter-spacing: normal; orphans: 2; text-align: left; text-indent: 0px; text-transform: none; widows: 2; word-spacing: 0px; -webkit-text-stroke-width: 0px; background-color: rgb(33, 33, 34); text-decoration-thickness: initial; text-decoration-style: initial; text-decoration-color: initial; color: rgb(169, 183, 198);&quot;&gt;&lt;span&gt;2&amp;nbsp;&lt;/span&gt;&lt;/span&gt;&lt;span style=&quot;border-color: var(--border-color); font-family: Consolas, &amp;quot;Courier New&amp;quot;, monospace; font-size: 14px; font-style: normal; font-variant-ligatures: normal; font-variant-caps: normal; letter-spacing: normal; orphans: 2; text-align: left; text-indent: 0px; text-transform: none; widows: 2; word-spacing: 0px; -webkit-text-stroke-width: 0px; background-color: rgb(33, 33, 34); text-decoration-thickness: initial; text-decoration-style: initial; text-decoration-color: initial; color: rgb(169, 183, 198); font-weight: bold;&quot;&gt;+&lt;/span&gt;&lt;span style=&quot;border-color: var(--border-color); font-family: Consolas, &amp;quot;Courier New&amp;quot;, monospace; font-size: 14px; font-style: normal; font-variant-ligatures: normal; font-variant-caps: normal; font-weight: 400; letter-spacing: normal; orphans: 2; text-align: left; text-indent: 0px; text-transform: none; widows: 2; word-spacing: 0px; -webkit-text-stroke-width: 0px; background-color: rgb(33, 33, 34); text-decoration-thickness: initial; text-decoration-style: initial; text-decoration-color: initial; color: rgb(169, 183, 198);&quot;&gt;&lt;span&gt;&amp;nbsp;&lt;/span&gt;&lt;/span&gt;&lt;span style=&quot;border-color: var(--border-color); font-family: Consolas, &amp;quot;Courier New&amp;quot;, monospace; font-size: 14px; font-style: normal; font-variant-ligatures: normal; font-variant-caps: normal; font-weight: 400; letter-spacing: normal; orphans: 2; text-align: left; text-indent: 0px; text-transform: none; widows: 2; word-spacing: 0px; -webkit-text-stroke-width: 0px; background-color: rgb(33, 33, 34); text-decoration-thickness: initial; text-decoration-style: initial; text-decoration-color: initial; color: rgb(255, 198, 109);&quot;&gt;tri_recursion&lt;/span&gt;&lt;span style=&quot;border-color: var(--border-color); font-family: Consolas, &amp;quot;Courier New&amp;quot;, monospace; font-size: 14px; font-style: normal; font-variant-ligatures: normal; font-variant-caps: normal; font-weight: 400; letter-spacing: normal; orphans: 2; text-align: left; text-indent: 0px; text-transform: none; widows: 2; word-spacing: 0px; -webkit-text-stroke-width: 0px; background-color: rgb(33, 33, 34); text-decoration-thickness: initial; text-decoration-style: initial; text-decoration-color: initial; color: rgb(169, 183, 198);&quot;&gt;(2&lt;span&gt;&amp;nbsp;&lt;/span&gt;&lt;/span&gt;&lt;span style=&quot;border-color: var(--border-color); font-family: Consolas, &amp;quot;Courier New&amp;quot;, monospace; font-size: 14px; font-style: normal; font-variant-ligatures: normal; font-variant-caps: normal; letter-spacing: normal; orphans: 2; text-align: left; text-indent: 0px; text-transform: none; widows: 2; word-spacing: 0px; -webkit-text-stroke-width: 0px; background-color: rgb(33, 33, 34); text-decoration-thickness: initial; text-decoration-style: initial; text-decoration-color: initial; color: rgb(169, 183, 198); font-weight: bold;&quot;&gt;-&lt;/span&gt;&lt;span style=&quot;border-color: var(--border-color); font-family: Consolas, &amp;quot;Courier New&amp;quot;, monospace; font-size: 14px; font-style: normal; font-variant-ligatures: normal; font-variant-caps: normal; font-weight: 400; letter-spacing: normal; orphans: 2; text-align: left; text-indent: 0px; text-transform: none; widows: 2; word-spacing: 0px; -webkit-text-stroke-width: 0px; background-color: rgb(33, 33, 34); text-decoration-thickness: initial; text-decoration-style: initial; text-decoration-color: initial; color: rgb(169, 183, 198);&quot;&gt;&lt;span&gt;&amp;nbsp;&lt;/span&gt;&lt;/span&gt;&lt;span style=&quot;border-color: var(--border-color); font-family: Consolas, &amp;quot;Courier New&amp;quot;, monospace; font-size: 14px; font-style: normal; font-variant-ligatures: normal; font-variant-caps: normal; font-weight: 400; letter-spacing: normal; orphans: 2; text-align: left; text-indent: 0px; text-transform: none; widows: 2; word-spacing: 0px; -webkit-text-stroke-width: 0px; background-color: rgb(33, 33, 34); text-decoration-thickness: initial; text-decoration-style: initial; text-decoration-color: initial; color: rgb(104, 151, 187);&quot;&gt;1&lt;/span&gt;&lt;span style=&quot;border-color: var(--border-color); font-family: Consolas, &amp;quot;Courier New&amp;quot;, monospace; font-size: 14px; font-style: normal; font-variant-ligatures: normal; font-variant-caps: normal; font-weight: 400; letter-spacing: normal; orphans: 2; text-align: left; text-indent: 0px; text-transform: none; widows: 2; word-spacing: 0px; -webkit-text-stroke-width: 0px; background-color: rgb(33, 33, 34); text-decoration-thickness: initial; text-decoration-style: initial; text-decoration-color: initial; color: rgb(169, 183, 198);&quot;&gt;)&lt;/span&gt;" style="text;whiteSpace=wrap;html=1;" vertex="1" parent="1">
          <mxGeometry x="590" y="575" width="190" height="30" as="geometry" />
        </mxCell>
        <mxCell id="ee4p5m4NYaFbDFk599MZ-22" style="edgeStyle=orthogonalEdgeStyle;rounded=0;orthogonalLoop=1;jettySize=auto;html=1;entryX=0;entryY=0.5;entryDx=0;entryDy=0;" edge="1" parent="1" source="ee4p5m4NYaFbDFk599MZ-21" target="ee4p5m4NYaFbDFk599MZ-13">
          <mxGeometry relative="1" as="geometry" />
        </mxCell>
        <mxCell id="ee4p5m4NYaFbDFk599MZ-21" value="&lt;span style=&quot;border-color: var(--border-color); font-family: Consolas, &amp;quot;Courier New&amp;quot;, monospace; font-size: 14px; font-style: normal; font-variant-ligatures: normal; font-variant-caps: normal; font-weight: 400; letter-spacing: normal; orphans: 2; text-align: left; text-indent: 0px; text-transform: none; widows: 2; word-spacing: 0px; -webkit-text-stroke-width: 0px; background-color: rgb(33, 33, 34); text-decoration-thickness: initial; text-decoration-style: initial; text-decoration-color: initial; color: rgb(169, 183, 198);&quot;&gt;&lt;span&gt;1&amp;nbsp;&lt;/span&gt;&lt;/span&gt;&lt;span style=&quot;border-color: var(--border-color); font-family: Consolas, &amp;quot;Courier New&amp;quot;, monospace; font-size: 14px; font-style: normal; font-variant-ligatures: normal; font-variant-caps: normal; letter-spacing: normal; orphans: 2; text-align: left; text-indent: 0px; text-transform: none; widows: 2; word-spacing: 0px; -webkit-text-stroke-width: 0px; background-color: rgb(33, 33, 34); text-decoration-thickness: initial; text-decoration-style: initial; text-decoration-color: initial; color: rgb(169, 183, 198); font-weight: bold;&quot;&gt;+&lt;/span&gt;&lt;span style=&quot;border-color: var(--border-color); font-family: Consolas, &amp;quot;Courier New&amp;quot;, monospace; font-size: 14px; font-style: normal; font-variant-ligatures: normal; font-variant-caps: normal; font-weight: 400; letter-spacing: normal; orphans: 2; text-align: left; text-indent: 0px; text-transform: none; widows: 2; word-spacing: 0px; -webkit-text-stroke-width: 0px; background-color: rgb(33, 33, 34); text-decoration-thickness: initial; text-decoration-style: initial; text-decoration-color: initial; color: rgb(169, 183, 198);&quot;&gt;&lt;span&gt;&amp;nbsp;&lt;/span&gt;&lt;/span&gt;&lt;span style=&quot;border-color: var(--border-color); font-family: Consolas, &amp;quot;Courier New&amp;quot;, monospace; font-size: 14px; font-style: normal; font-variant-ligatures: normal; font-variant-caps: normal; font-weight: 400; letter-spacing: normal; orphans: 2; text-align: left; text-indent: 0px; text-transform: none; widows: 2; word-spacing: 0px; -webkit-text-stroke-width: 0px; background-color: rgb(33, 33, 34); text-decoration-thickness: initial; text-decoration-style: initial; text-decoration-color: initial; color: rgb(255, 198, 109);&quot;&gt;tri_recursion&lt;/span&gt;&lt;span style=&quot;border-color: var(--border-color); font-family: Consolas, &amp;quot;Courier New&amp;quot;, monospace; font-size: 14px; font-style: normal; font-variant-ligatures: normal; font-variant-caps: normal; font-weight: 400; letter-spacing: normal; orphans: 2; text-align: left; text-indent: 0px; text-transform: none; widows: 2; word-spacing: 0px; -webkit-text-stroke-width: 0px; background-color: rgb(33, 33, 34); text-decoration-thickness: initial; text-decoration-style: initial; text-decoration-color: initial; color: rgb(169, 183, 198);&quot;&gt;(1&lt;span&gt;&amp;nbsp;&lt;/span&gt;&lt;/span&gt;&lt;span style=&quot;border-color: var(--border-color); font-family: Consolas, &amp;quot;Courier New&amp;quot;, monospace; font-size: 14px; font-style: normal; font-variant-ligatures: normal; font-variant-caps: normal; letter-spacing: normal; orphans: 2; text-align: left; text-indent: 0px; text-transform: none; widows: 2; word-spacing: 0px; -webkit-text-stroke-width: 0px; background-color: rgb(33, 33, 34); text-decoration-thickness: initial; text-decoration-style: initial; text-decoration-color: initial; color: rgb(169, 183, 198); font-weight: bold;&quot;&gt;-&lt;/span&gt;&lt;span style=&quot;border-color: var(--border-color); font-family: Consolas, &amp;quot;Courier New&amp;quot;, monospace; font-size: 14px; font-style: normal; font-variant-ligatures: normal; font-variant-caps: normal; font-weight: 400; letter-spacing: normal; orphans: 2; text-align: left; text-indent: 0px; text-transform: none; widows: 2; word-spacing: 0px; -webkit-text-stroke-width: 0px; background-color: rgb(33, 33, 34); text-decoration-thickness: initial; text-decoration-style: initial; text-decoration-color: initial; color: rgb(169, 183, 198);&quot;&gt;&lt;span&gt;&amp;nbsp;&lt;/span&gt;&lt;/span&gt;&lt;span style=&quot;border-color: var(--border-color); font-family: Consolas, &amp;quot;Courier New&amp;quot;, monospace; font-size: 14px; font-style: normal; font-variant-ligatures: normal; font-variant-caps: normal; font-weight: 400; letter-spacing: normal; orphans: 2; text-align: left; text-indent: 0px; text-transform: none; widows: 2; word-spacing: 0px; -webkit-text-stroke-width: 0px; background-color: rgb(33, 33, 34); text-decoration-thickness: initial; text-decoration-style: initial; text-decoration-color: initial; color: rgb(104, 151, 187);&quot;&gt;1&lt;/span&gt;&lt;span style=&quot;border-color: var(--border-color); font-family: Consolas, &amp;quot;Courier New&amp;quot;, monospace; font-size: 14px; font-style: normal; font-variant-ligatures: normal; font-variant-caps: normal; font-weight: 400; letter-spacing: normal; orphans: 2; text-align: left; text-indent: 0px; text-transform: none; widows: 2; word-spacing: 0px; -webkit-text-stroke-width: 0px; background-color: rgb(33, 33, 34); text-decoration-thickness: initial; text-decoration-style: initial; text-decoration-color: initial; color: rgb(169, 183, 198);&quot;&gt;)&lt;/span&gt;" style="text;whiteSpace=wrap;html=1;" vertex="1" parent="1">
          <mxGeometry x="820" y="605" width="190" height="30" as="geometry" />
        </mxCell>
        <mxCell id="ee4p5m4NYaFbDFk599MZ-30" value="&lt;div style=&quot;color: rgb(212, 212, 212); background-color: rgb(33, 33, 34); font-family: Consolas, &amp;quot;Courier New&amp;quot;, monospace; font-weight: normal; font-size: 14px; line-height: 19px;&quot;&gt;&lt;div&gt;&lt;span style=&quot;color: #a9b7c6;&quot;&gt;x &lt;/span&gt;&lt;span style=&quot;color: #a9b7c6;font-weight: bold;&quot;&gt;=&lt;/span&gt;&lt;span style=&quot;color: #a9b7c6;&quot;&gt; &lt;/span&gt;&lt;span style=&quot;color: #cc7832;font-weight: bold;&quot;&gt;lambda&lt;/span&gt;&lt;span style=&quot;color: #a9b7c6;&quot;&gt; a : a &lt;/span&gt;&lt;span style=&quot;color: #a9b7c6;font-weight: bold;&quot;&gt;+&lt;/span&gt;&lt;span style=&quot;color: #a9b7c6;&quot;&gt; &lt;/span&gt;&lt;span style=&quot;color: #6897bb;&quot;&gt;10&lt;/span&gt;&lt;/div&gt;&lt;div&gt;&lt;span style=&quot;color: #6897bb;&quot;&gt;&lt;br&gt;&lt;/span&gt;&lt;/div&gt;&lt;div&gt;&lt;span style=&quot;color: #6897bb;&quot;&gt;def x(a):&lt;/span&gt;&lt;/div&gt;&lt;div&gt;&lt;span style=&quot;color: #6897bb;&quot;&gt;&amp;nbsp; &amp;nbsp;return a + 10&lt;/span&gt;&lt;/div&gt;&lt;div&gt;&lt;span style=&quot;color: #6897bb;&quot;&gt;&lt;br&gt;&lt;/span&gt;&lt;/div&gt;&lt;div&gt;&lt;span style=&quot;color: #6897bb;&quot;&gt;def x(a ,b):&lt;/span&gt;&lt;/div&gt;&lt;div&gt;&lt;span style=&quot;color: #6897bb;&quot;&gt;&amp;nbsp; &amp;nbsp;return a * b&lt;/span&gt;&lt;/div&gt;&lt;div&gt;&lt;span style=&quot;color: #6897bb;&quot;&gt;&lt;br&gt;&lt;/span&gt;&lt;/div&gt;&lt;div&gt;&lt;span style=&quot;color: #6897bb;&quot;&gt;&lt;br&gt;&lt;/span&gt;&lt;/div&gt;&lt;div&gt;&lt;span style=&quot;color: #6897bb;&quot;&gt;&lt;br&gt;&lt;/span&gt;&lt;/div&gt;&lt;/div&gt;" style="text;whiteSpace=wrap;html=1;" vertex="1" parent="1">
          <mxGeometry x="150" y="660" width="200" height="160" as="geometry" />
        </mxCell>
        <mxCell id="ee4p5m4NYaFbDFk599MZ-36" value="" style="edgeStyle=orthogonalEdgeStyle;rounded=0;orthogonalLoop=1;jettySize=auto;html=1;" edge="1" parent="1" source="ee4p5m4NYaFbDFk599MZ-31" target="ee4p5m4NYaFbDFk599MZ-35">
          <mxGeometry relative="1" as="geometry" />
        </mxCell>
        <mxCell id="ee4p5m4NYaFbDFk599MZ-31" value="my_f" style="rounded=0;whiteSpace=wrap;html=1;" vertex="1" parent="1">
          <mxGeometry x="550" y="800" width="90" height="60" as="geometry" />
        </mxCell>
        <mxCell id="ee4p5m4NYaFbDFk599MZ-34" style="edgeStyle=orthogonalEdgeStyle;rounded=0;orthogonalLoop=1;jettySize=auto;html=1;entryX=0.5;entryY=0;entryDx=0;entryDy=0;" edge="1" parent="1" source="ee4p5m4NYaFbDFk599MZ-32" target="ee4p5m4NYaFbDFk599MZ-31">
          <mxGeometry relative="1" as="geometry" />
        </mxCell>
        <mxCell id="ee4p5m4NYaFbDFk599MZ-32" value="input(2)" style="whiteSpace=wrap;html=1;rounded=0;" vertex="1" parent="1">
          <mxGeometry x="535" y="660" width="120" height="60" as="geometry" />
        </mxCell>
        <mxCell id="ee4p5m4NYaFbDFk599MZ-41" value="" style="edgeStyle=orthogonalEdgeStyle;rounded=0;orthogonalLoop=1;jettySize=auto;html=1;" edge="1" parent="1" source="ee4p5m4NYaFbDFk599MZ-35" target="ee4p5m4NYaFbDFk599MZ-40">
          <mxGeometry relative="1" as="geometry" />
        </mxCell>
        <mxCell id="ee4p5m4NYaFbDFk599MZ-35" value="output(function)" style="whiteSpace=wrap;html=1;rounded=0;" vertex="1" parent="1">
          <mxGeometry x="705" y="800" width="120" height="60" as="geometry" />
        </mxCell>
        <mxCell id="ee4p5m4NYaFbDFk599MZ-39" style="edgeStyle=orthogonalEdgeStyle;rounded=0;orthogonalLoop=1;jettySize=auto;html=1;entryX=0.446;entryY=-0.022;entryDx=0;entryDy=0;entryPerimeter=0;" edge="1" parent="1" source="ee4p5m4NYaFbDFk599MZ-38" target="ee4p5m4NYaFbDFk599MZ-35">
          <mxGeometry relative="1" as="geometry" />
        </mxCell>
        <mxCell id="ee4p5m4NYaFbDFk599MZ-38" value="input(11)" style="rounded=0;whiteSpace=wrap;html=1;" vertex="1" parent="1">
          <mxGeometry x="699" y="671" width="120" height="60" as="geometry" />
        </mxCell>
        <mxCell id="ee4p5m4NYaFbDFk599MZ-40" value="output" style="whiteSpace=wrap;html=1;rounded=0;" vertex="1" parent="1">
          <mxGeometry x="905" y="800" width="120" height="60" as="geometry" />
        </mxCell>
        <mxCell id="ee4p5m4NYaFbDFk599MZ-46" value="" style="edgeStyle=orthogonalEdgeStyle;rounded=0;orthogonalLoop=1;jettySize=auto;html=1;" edge="1" parent="1" source="ee4p5m4NYaFbDFk599MZ-42" target="ee4p5m4NYaFbDFk599MZ-45">
          <mxGeometry relative="1" as="geometry" />
        </mxCell>
        <mxCell id="ee4p5m4NYaFbDFk599MZ-42" value="Afghanistan" style="rounded=0;whiteSpace=wrap;html=1;" vertex="1" parent="1">
          <mxGeometry x="420" y="900" width="120" height="60" as="geometry" />
        </mxCell>
        <mxCell id="ee4p5m4NYaFbDFk599MZ-44" style="edgeStyle=orthogonalEdgeStyle;rounded=0;orthogonalLoop=1;jettySize=auto;html=1;entryX=0;entryY=0.5;entryDx=0;entryDy=0;" edge="1" parent="1" source="ee4p5m4NYaFbDFk599MZ-43" target="ee4p5m4NYaFbDFk599MZ-42">
          <mxGeometry relative="1" as="geometry" />
        </mxCell>
        <mxCell id="ee4p5m4NYaFbDFk599MZ-50" value="" style="edgeStyle=orthogonalEdgeStyle;rounded=0;orthogonalLoop=1;jettySize=auto;html=1;" edge="1" parent="1" source="ee4p5m4NYaFbDFk599MZ-43" target="ee4p5m4NYaFbDFk599MZ-49">
          <mxGeometry relative="1" as="geometry" />
        </mxCell>
        <mxCell id="ee4p5m4NYaFbDFk599MZ-52" value="" style="edgeStyle=orthogonalEdgeStyle;rounded=0;orthogonalLoop=1;jettySize=auto;html=1;" edge="1" parent="1" source="ee4p5m4NYaFbDFk599MZ-43" target="ee4p5m4NYaFbDFk599MZ-51">
          <mxGeometry relative="1" as="geometry" />
        </mxCell>
        <mxCell id="ee4p5m4NYaFbDFk599MZ-53" value="" style="edgeStyle=orthogonalEdgeStyle;rounded=0;orthogonalLoop=1;jettySize=auto;html=1;" edge="1" parent="1" source="ee4p5m4NYaFbDFk599MZ-43" target="ee4p5m4NYaFbDFk599MZ-51">
          <mxGeometry relative="1" as="geometry" />
        </mxCell>
        <mxCell id="ee4p5m4NYaFbDFk599MZ-54" style="edgeStyle=orthogonalEdgeStyle;rounded=0;orthogonalLoop=1;jettySize=auto;html=1;exitX=1;exitY=0.75;exitDx=0;exitDy=0;" edge="1" parent="1" source="ee4p5m4NYaFbDFk599MZ-43" target="ee4p5m4NYaFbDFk599MZ-55">
          <mxGeometry relative="1" as="geometry">
            <mxPoint x="380" y="1100" as="targetPoint" />
          </mxGeometry>
        </mxCell>
        <mxCell id="ee4p5m4NYaFbDFk599MZ-43" value="tweets" style="rounded=0;whiteSpace=wrap;html=1;" vertex="1" parent="1">
          <mxGeometry x="80" y="890" width="120" height="60" as="geometry" />
        </mxCell>
        <mxCell id="ee4p5m4NYaFbDFk599MZ-48" value="" style="edgeStyle=orthogonalEdgeStyle;rounded=0;orthogonalLoop=1;jettySize=auto;html=1;" edge="1" parent="1" source="ee4p5m4NYaFbDFk599MZ-45" target="ee4p5m4NYaFbDFk599MZ-47">
          <mxGeometry relative="1" as="geometry" />
        </mxCell>
        <mxCell id="ee4p5m4NYaFbDFk599MZ-45" value="Clustering" style="whiteSpace=wrap;html=1;rounded=0;" vertex="1" parent="1">
          <mxGeometry x="620" y="920" width="120" height="60" as="geometry" />
        </mxCell>
        <mxCell id="ee4p5m4NYaFbDFk599MZ-47" value="10 Clusters" style="whiteSpace=wrap;html=1;rounded=0;" vertex="1" parent="1">
          <mxGeometry x="850" y="960" width="120" height="60" as="geometry" />
        </mxCell>
        <mxCell id="ee4p5m4NYaFbDFk599MZ-49" value="class Tweets()" style="whiteSpace=wrap;html=1;rounded=0;" vertex="1" parent="1">
          <mxGeometry x="225" y="1010" width="120" height="60" as="geometry" />
        </mxCell>
        <mxCell id="ee4p5m4NYaFbDFk599MZ-57" style="edgeStyle=orthogonalEdgeStyle;rounded=0;orthogonalLoop=1;jettySize=auto;html=1;entryX=0;entryY=0.5;entryDx=0;entryDy=0;" edge="1" parent="1" source="ee4p5m4NYaFbDFk599MZ-51" target="ee4p5m4NYaFbDFk599MZ-49">
          <mxGeometry relative="1" as="geometry" />
        </mxCell>
        <mxCell id="ee4p5m4NYaFbDFk599MZ-51" value="Class configure tweeter" style="whiteSpace=wrap;html=1;rounded=0;" vertex="1" parent="1">
          <mxGeometry x="10" y="1060" width="120" height="60" as="geometry" />
        </mxCell>
        <mxCell id="ee4p5m4NYaFbDFk599MZ-58" style="edgeStyle=orthogonalEdgeStyle;rounded=0;orthogonalLoop=1;jettySize=auto;html=1;entryX=0.5;entryY=1;entryDx=0;entryDy=0;" edge="1" parent="1" source="ee4p5m4NYaFbDFk599MZ-55" target="ee4p5m4NYaFbDFk599MZ-49">
          <mxGeometry relative="1" as="geometry" />
        </mxCell>
        <mxCell id="ee4p5m4NYaFbDFk599MZ-55" value="Class Text Cleaning" style="rounded=0;whiteSpace=wrap;html=1;" vertex="1" parent="1">
          <mxGeometry x="353" y="1070" width="120" height="60" as="geometry" />
        </mxCell>
      </root>
    </mxGraphModel>
  </diagram>
</mxfile>
